<svg xmlns="http://www.w3.org/2000/svg" xmlns:xlink="http://www.w3.org/1999/xlink" width="500" zoomAndPan="magnify" viewBox="0 0 375 374.999991" height="500" preserveAspectRatio="xMidYMid meet" version="1.0"><defs><g/></defs><rect x="-37.5" width="450" fill="#ffffff" y="-37.499999" height="449.999989" fill-opacity="1"/><rect x="-37.5" width="450" fill="#0571d3" y="-37.499999" height="449.999989" fill-opacity="1"/><path stroke-linecap="round" transform="matrix(0, -0.75, 0.75, 0, 220.367553, 147.235538)" fill="none" stroke-linejoin="miter" d="M 0.501551 0.499512 L 26.939053 0.499512 " stroke="#ffffff" stroke-width="1" stroke-opacity="1" stroke-miterlimit="4"/><path stroke-linecap="round" transform="matrix(0, -0.75, 0.75, 0, 220.367421, 152.960848)" fill="none" stroke-linejoin="miter" d="M 0.499881 0.499688 L 2.812381 0.499688 " stroke="#ffffff" stroke-width="1" stroke-opacity="1" stroke-miterlimit="4"/><path stroke-linecap="round" transform="matrix(0, -0.75, 0.75, 0, 220.367421, 157.792886)" fill="none" stroke-linejoin="miter" d="M 0.499889 0.499688 L 2.812389 0.499688 " stroke="#ffffff" stroke-width="1" stroke-opacity="1" stroke-miterlimit="4"/><path stroke-linecap="round" transform="matrix(0, -0.75, 0.75, 0, 220.366, 168.218528)" fill="none" stroke-linejoin="miter" d="M 0.499704 0.501583 L 4.520538 0.501583 " stroke="#ffffff" stroke-width="1" stroke-opacity="1" stroke-miterlimit="4"/><path stroke-linecap="round" transform="matrix(0, -0.75, 0.75, 0, 220.365928, 221.758154)" fill="none" stroke-linejoin="miter" d="M 0.500456 0.501679 L 65.771293 0.501679 " stroke="#ffffff" stroke-width="1" stroke-opacity="1" stroke-miterlimit="4"/><path stroke-linecap="round" transform="matrix(0.75, 0.000000000000000488, -0.000000000000000488, 0.75, 133.542536, 213.524636)" fill="none" stroke-linejoin="miter" d="M 0.500577 0.498403 L 86.927666 0.498403 " stroke="#ffffff" stroke-width="1" stroke-opacity="1" stroke-miterlimit="4"/><path stroke-linecap="round" transform="matrix(0.75, 0.000000000000001744, -0.000000000000001744, 0.75, 173.088567, 146.225249)" fill="none" stroke-linejoin="miter" d="M 0.501703 0.501752 L 85.064208 0.501752 " stroke="#ffffff" stroke-width="1" stroke-opacity="1" stroke-miterlimit="4"/><path stroke-linecap="round" transform="matrix(0, -0.75, 0.75, 0, 173.344198, 213.894449)" fill="none" stroke-linejoin="miter" d="M 0.499891 0.499403 L 89.234271 0.499403 " stroke="#ffffff" stroke-width="1" stroke-opacity="1" stroke-miterlimit="4"/><path stroke-linecap="round" transform="matrix(0, -0.75, 0.75, 0, 182.036184, 213.897891)" fill="none" stroke-linejoin="miter" d="M 0.499271 0.49863 L 65.426359 0.49863 " stroke="#ffffff" stroke-width="1" stroke-opacity="1" stroke-miterlimit="4"/><path stroke-linecap="round" transform="matrix(0, -0.75, 0.75, 0, 156.221946, 229.894893)" fill="none" stroke-linejoin="miter" d="M 0.500482 0.500947 L 86.755696 0.500947 " stroke="#ffffff" stroke-width="1" stroke-opacity="1" stroke-miterlimit="4"/><path stroke-linecap="round" transform="matrix(0.75, 0.000000000000001239, -0.000000000000001239, 0.75, 156.599569, 164.71556)" fill="none" stroke-linejoin="miter" d="M 0.497449 0.499045 L 33.919326 0.499045 " stroke="#ffffff" stroke-width="1" stroke-opacity="1" stroke-miterlimit="4"/><path stroke-linecap="round" transform="matrix(0, -0.75, 0.75, 0, 156.219237, 153.591919)" fill="none" stroke-linejoin="miter" d="M 0.497558 0.499351 L 35.419436 0.499351 " stroke="#ffffff" stroke-width="1" stroke-opacity="1" stroke-miterlimit="4"/><path stroke-linecap="round" transform="matrix(0, -0.75, 0.75, 0, 194.368089, 219.651314)" fill="none" stroke-linejoin="miter" d="M 0.498628 0.498799 L 62.967382 0.498799 " stroke="#ffffff" stroke-width="1" stroke-opacity="1" stroke-miterlimit="4"/><path stroke-linecap="round" transform="matrix(0, -0.75, 0.75, 0, 203.905465, 201.319367)" fill="none" stroke-linejoin="miter" d="M 0.498739 0.501047 L 72.462285 0.501047 " stroke="#ffffff" stroke-width="1" stroke-opacity="1" stroke-miterlimit="4"/><path stroke-linecap="round" transform="matrix(0.75, 0, 0, 0.75, 187.203743, 200.948629)" fill="none" stroke-linejoin="miter" d="M 0.499175 0.500786 L 22.275219 0.500786 " stroke="#ffffff" stroke-width="1" stroke-opacity="1" stroke-miterlimit="4"/><path stroke-linecap="round" transform="matrix(0, -0.75, 0.75, 0, 187.461935, 201.956824)" fill="none" stroke-linejoin="miter" d="M 0.499723 0.49867 L 26.020558 0.49867 " stroke="#ffffff" stroke-width="1" stroke-opacity="1" stroke-miterlimit="4"/><path stroke-linecap="round" transform="matrix(0.626913, -0.41168, 0.41168, 0.626913, 187.272386, 182.777215)" fill="none" stroke-linejoin="miter" d="M 0.500053 0.503045 L 26.304327 0.500019 " stroke="#ffffff" stroke-width="1" stroke-opacity="1" stroke-miterlimit="4"/><path stroke-linecap="round" transform="matrix(-0.64109, -0.389235, 0.389235, -0.64109, 220.541913, 182.386248)" fill="none" stroke-linejoin="miter" d="M 0.502186 0.49866 L 24.338135 0.497989 " stroke="#ffffff" stroke-width="1" stroke-opacity="1" stroke-miterlimit="4"/><path stroke-linecap="round" transform="matrix(0.75, -0.000000000000001209, 0.000000000000001209, 0.75, 111.696304, 146.225249)" fill="none" stroke-linejoin="miter" d="M 0.498678 0.501752 L 54.003889 0.501752 " stroke="#ffffff" stroke-width="1" stroke-opacity="1" stroke-miterlimit="4"/><path stroke-linecap="round" transform="matrix(0, -0.75, 0.75, 0, 156.223955, 157.792886)" fill="none" stroke-linejoin="miter" d="M 0.499889 0.498268 L 2.812389 0.498268 " stroke="#ffffff" stroke-width="1" stroke-opacity="1" stroke-miterlimit="4"/><path stroke-linecap="round" transform="matrix(0, -0.75, 0.75, 0, 156.221946, 161.039476)" fill="none" stroke-linejoin="miter" d="M 0.500551 0.500947 L 1.28701 0.500947 " stroke="#ffffff" stroke-width="1" stroke-opacity="1" stroke-miterlimit="4"/><path stroke-linecap="round" transform="matrix(0, -0.75, 0.75, 0, 194.368921, 152.957628)" fill="none" stroke-linejoin="miter" d="M 0.500795 0.497688 L 34.573714 0.497688 " stroke="#ffffff" stroke-width="1" stroke-opacity="1" stroke-miterlimit="4"/><path stroke-linecap="round" transform="matrix(0, -0.75, 0.75, 0, 194.372173, 157.792886)" fill="none" stroke-linejoin="miter" d="M 0.499889 0.498561 L 2.812389 0.498561 " stroke="#ffffff" stroke-width="1" stroke-opacity="1" stroke-miterlimit="4"/><path stroke-linecap="round" transform="matrix(0, -0.75, 0.75, 0, 194.372173, 162.284286)" fill="none" stroke-linejoin="miter" d="M 0.49884 0.498561 L 2.816548 0.498561 " stroke="#ffffff" stroke-width="1" stroke-opacity="1" stroke-miterlimit="4"/><path stroke-linecap="round" transform="matrix(0, -0.75, 0.75, 0, 194.372173, 170.179441)" fill="none" stroke-linejoin="miter" d="M 0.499671 0.498561 L 2.812171 0.498561 " stroke="#ffffff" stroke-width="1" stroke-opacity="1" stroke-miterlimit="4"/><path stroke-linecap="round" transform="matrix(0, -0.75, 0.75, 0, 194.372173, 166.332747)" fill="none" stroke-linejoin="miter" d="M 0.500955 0.498561 L 2.813455 0.498561 " stroke="#ffffff" stroke-width="1" stroke-opacity="1" stroke-miterlimit="4"/><path stroke-linecap="round" transform="matrix(0.75, -0.000000000000000651, 0.000000000000000651, 0.75, 203.648926, 171.6818)" fill="none" stroke-linejoin="miter" d="M 0.499348 0.502392 L 63.041019 0.502392 " stroke="#ffffff" stroke-width="1" stroke-opacity="1" stroke-miterlimit="4"/><path stroke-linecap="round" transform="matrix(-0.75, 0, 0, -0.75, 193.162624, 172.431785)" fill="none" stroke-linejoin="miter" d="M 0.498082 0.497589 L 2.81579 0.497589 " stroke="#ffffff" stroke-width="1" stroke-opacity="1" stroke-miterlimit="4"/><path stroke-linecap="round" transform="matrix(-0.75, 0, 0, -0.75, 199.647971, 172.431785)" fill="none" stroke-linejoin="miter" d="M 0.499377 0.497589 L 2.811878 0.497589 " stroke="#ffffff" stroke-width="1" stroke-opacity="1" stroke-miterlimit="4"/><path stroke-linecap="round" transform="matrix(-0.75, 0, 0, -0.75, 189.688118, 172.431785)" fill="none" stroke-linejoin="miter" d="M 0.500824 0.497589 L 2.813324 0.497589 " stroke="#ffffff" stroke-width="1" stroke-opacity="1" stroke-miterlimit="4"/><path stroke-linecap="round" transform="matrix(0.75, -0.000000000000001953, 0.000000000000001953, 0.75, 152.57393, 171.6818)" fill="none" stroke-linejoin="miter" d="M 0.500385 0.502392 L 43.031638 0.502392 " stroke="#ffffff" stroke-width="1" stroke-opacity="1" stroke-miterlimit="4"/><path stroke-linecap="round" transform="matrix(-0.75, 0, 0, -0.75, 173.723107, 146.975249)" fill="none" stroke-linejoin="miter" d="M 0.500602 0.498248 L 2.813102 0.498248 " stroke="#ffffff" stroke-width="1" stroke-opacity="1" stroke-miterlimit="4"/><path stroke-linecap="round" transform="matrix(-0.75, 0, 0, -0.75, 168.946721, 146.975249)" fill="none" stroke-linejoin="miter" d="M 0.501879 0.498248 L 2.814379 0.498248 " stroke="#ffffff" stroke-width="1" stroke-opacity="1" stroke-miterlimit="4"/><path stroke-linecap="round" transform="matrix(-0.75, 0, 0, -0.75, 162.898719, 146.975249)" fill="none" stroke-linejoin="miter" d="M 0.500376 0.498248 L 2.812876 0.498248 " stroke="#ffffff" stroke-width="1" stroke-opacity="1" stroke-miterlimit="4"/><path stroke-linecap="round" transform="matrix(-0.75, 0, 0, -0.75, 157.841142, 146.975249)" fill="none" stroke-linejoin="miter" d="M 0.501731 0.498248 L 2.814231 0.498248 " stroke="#ffffff" stroke-width="1" stroke-opacity="1" stroke-miterlimit="4"/><path stroke-linecap="round" transform="matrix(-0.75, 0.000000001309, -0.000000001309, -0.75, 210.781236, 214.274604)" fill="none" stroke-linejoin="miter" d="M 0.499982 0.501556 L 0.947898 0.501556 " stroke="#ffffff" stroke-width="1" stroke-opacity="1" stroke-miterlimit="4"/><path stroke-linecap="round" transform="matrix(-0.75, 0, 0, -0.75, 207.827218, 214.274636)" fill="none" stroke-linejoin="miter" d="M 0.498791 0.501597 L 2.816499 0.501597 " stroke="#ffffff" stroke-width="1" stroke-opacity="1" stroke-miterlimit="4"/><path stroke-linecap="round" transform="matrix(-0.75, 0, 0, -0.75, 203.434196, 214.274636)" fill="none" stroke-linejoin="miter" d="M 0.500803 0.501597 L 2.813303 0.501597 " stroke="#ffffff" stroke-width="1" stroke-opacity="1" stroke-miterlimit="4"/><path stroke-linecap="round" transform="matrix(-0.75, 0, 0, -0.75, 215.181744, 214.274636)" fill="none" stroke-linejoin="miter" d="M 0.497534 0.501597 L 2.815242 0.501597 " stroke="#ffffff" stroke-width="1" stroke-opacity="1" stroke-miterlimit="4"/><path stroke-linecap="round" transform="matrix(0.75, 0, 0, 0.75, 217.090389, 213.524636)" fill="none" stroke-linejoin="miter" d="M 0.499272 0.498403 L 26.395107 0.498403 " stroke="#ffffff" stroke-width="1" stroke-opacity="1" stroke-miterlimit="4"/><path stroke-linecap="round" transform="matrix(-0.47572, -0.579819, 0.579819, -0.47572, 248.674325, 183.330588)" fill="none" stroke-linejoin="miter" d="M 0.497914 0.498613 L 62.43691 0.499956 " stroke="#ffffff" stroke-width="1" stroke-opacity="1" stroke-miterlimit="4"/><path stroke-linecap="round" transform="matrix(-0.47572, -0.579819, 0.579819, -0.47572, 211.843863, 137.533585)" fill="none" stroke-linejoin="miter" d="M 0.503135 0.500191 L 62.438105 0.49823 " stroke="#ffffff" stroke-width="1" stroke-opacity="1" stroke-miterlimit="4"/><path stroke-linecap="round" transform="matrix(-0.506641, -0.553005, 0.553005, -0.506641, 214.510771, 141.104624)" fill="none" stroke-linejoin="miter" d="M 0.499488 0.501707 L 2.718629 0.500457 " stroke="#ffffff" stroke-width="1" stroke-opacity="1" stroke-miterlimit="4"/><path stroke-linecap="round" transform="matrix(-0.506641, -0.553005, 0.553005, -0.506641, 217.61999, 145.148575)" fill="none" stroke-linejoin="miter" d="M 0.500314 0.502746 L 2.715614 0.497977 " stroke="#ffffff" stroke-width="1" stroke-opacity="1" stroke-miterlimit="4"/><g fill="#fffdf5" fill-opacity="1"><g transform="translate(124.580052, 258.026488)"><g><path d="M 15.609375 -14.4375 L 9.796875 -14.4375 L 9.796875 0 L 6.375 0 L 6.375 -14.4375 L 0.578125 -14.4375 L 0.578125 -17.125 L 15.609375 -17.125 Z M 15.609375 -14.4375 "/></g></g></g><g fill="#fffdf5" fill-opacity="1"><g transform="translate(138.795647, 258.026488)"><g><path d="M 8.28125 -13.515625 C 8.664062 -13.515625 8.988281 -13.484375 9.25 -13.421875 L 9.25 -10.671875 C 7.800781 -10.765625 6.726562 -10.453125 6.03125 -9.734375 C 5.332031 -9.015625 4.984375 -7.785156 4.984375 -6.046875 L 4.984375 0 L 1.5625 0 L 1.5625 -13.203125 L 4.984375 -13.203125 L 4.984375 -10.796875 L 6.03125 -12.625 C 6.675781 -13.21875 7.425781 -13.515625 8.28125 -13.515625 Z M 8.28125 -13.515625 "/></g></g></g><g fill="#fffdf5" fill-opacity="1"><g transform="translate(146.982629, 258.026488)"><g><path d="M 1.90625 -17.59375 C 2.257812 -17.9375 2.71875 -18.109375 3.28125 -18.109375 C 3.84375 -18.109375 4.296875 -17.9375 4.640625 -17.59375 C 4.984375 -17.257812 5.15625 -16.828125 5.15625 -16.296875 C 5.15625 -15.753906 4.984375 -15.316406 4.640625 -14.984375 C 4.296875 -14.648438 3.84375 -14.484375 3.28125 -14.484375 C 2.71875 -14.484375 2.257812 -14.648438 1.90625 -14.984375 C 1.5625 -15.316406 1.390625 -15.753906 1.390625 -16.296875 C 1.390625 -16.828125 1.5625 -17.257812 1.90625 -17.59375 Z M 4.984375 0 L 1.5625 0 L 1.5625 -13.203125 L 4.984375 -13.203125 Z M 4.984375 0 "/></g></g></g><g fill="#fffdf5" fill-opacity="1"><g transform="translate(152.341373, 258.026488)"><g><path d="M 9.40625 -13.546875 C 11.226562 -13.546875 12.660156 -12.925781 13.703125 -11.6875 C 14.753906 -10.445312 15.28125 -8.832031 15.28125 -6.84375 C 15.28125 -4.5625 14.675781 -2.789062 13.46875 -1.53125 C 12.257812 -0.28125 10.753906 0.34375 8.953125 0.34375 C 7.597656 0.34375 6.566406 0.0976562 5.859375 -0.390625 L 4.984375 -1.765625 L 4.984375 4.859375 L 1.5625 4.859375 L 1.5625 -13.203125 L 4.984375 -13.203125 L 4.984375 -11.1875 L 5.984375 -12.625 C 6.742188 -13.238281 7.882812 -13.546875 9.40625 -13.546875 Z M 8.28125 -2.0625 C 9.3125 -2.0625 10.144531 -2.453125 10.78125 -3.234375 C 11.414062 -4.023438 11.734375 -5.15625 11.734375 -6.625 C 11.734375 -7.976562 11.429688 -9.066406 10.828125 -9.890625 C 10.222656 -10.722656 9.414062 -11.140625 8.40625 -11.140625 C 7.382812 -11.140625 6.554688 -10.785156 5.921875 -10.078125 C 5.296875 -9.378906 4.984375 -8.269531 4.984375 -6.75 L 4.984375 -6.125 C 4.984375 -4.738281 5.304688 -3.710938 5.953125 -3.046875 C 6.597656 -2.390625 7.375 -2.0625 8.28125 -2.0625 Z M 8.28125 -2.0625 "/></g></g></g><g fill="#fffdf5" fill-opacity="1"><g transform="translate(167.053149, 258.026488)"><g><path d="M 13.75 -13.203125 L 13.75 0 L 10.328125 0 L 10.328125 -2.234375 L 9.296875 -0.546875 C 8.410156 0.046875 7.351562 0.34375 6.125 0.34375 C 4.820312 0.34375 3.757812 0.0234375 2.9375 -0.609375 C 2.125 -1.242188 1.632812 -2.039062 1.46875 -3 C 1.382812 -3.5625 1.34375 -4.363281 1.34375 -5.40625 L 1.34375 -13.203125 L 4.765625 -13.203125 L 4.765625 -6.125 C 4.765625 -5.507812 4.796875 -4.90625 4.859375 -4.3125 C 5.046875 -2.820312 5.898438 -2.078125 7.421875 -2.078125 C 8.316406 -2.078125 9.023438 -2.445312 9.546875 -3.1875 C 10.066406 -3.9375 10.328125 -5.03125 10.328125 -6.46875 L 10.328125 -13.203125 Z M 13.75 -13.203125 "/></g></g></g><g fill="#fffdf5" fill-opacity="1"><g transform="translate(181.144702, 258.026488)"><g><path d="M 4.890625 -18.234375 L 4.890625 -4.3125 C 4.890625 -3.738281 4.894531 -3.332031 4.90625 -3.09375 C 4.945312 -2.75 5.070312 -2.519531 5.28125 -2.40625 C 5.5 -2.289062 5.890625 -2.25 6.453125 -2.28125 L 6.453125 0.078125 C 5.859375 0.140625 5.15625 0.171875 4.34375 0.171875 C 2.519531 0.171875 1.578125 -0.601562 1.515625 -2.15625 C 1.484375 -2.550781 1.46875 -3.25 1.46875 -4.25 L 1.46875 -18.234375 Z M 4.890625 -18.234375 "/></g></g></g><g fill="#fffdf5" fill-opacity="1"><g transform="translate(186.825957, 258.026488)"><g><path d="M 9.234375 0 L 8.984375 -1.9375 L 8.34375 -0.515625 C 7.476562 0.0546875 6.382812 0.34375 5.0625 0.34375 C 3.851562 0.34375 2.84375 0.00390625 2.03125 -0.671875 C 1.21875 -1.347656 0.8125 -2.289062 0.8125 -3.5 C 0.8125 -4.957031 1.425781 -6.078125 2.65625 -6.859375 C 3.894531 -7.648438 5.707031 -8.046875 8.09375 -8.046875 L 8.9375 -8.046875 L 8.9375 -8.3125 C 8.9375 -8.84375 8.921875 -9.253906 8.890625 -9.546875 C 8.765625 -10.609375 8.082031 -11.140625 6.84375 -11.140625 C 5.46875 -11.140625 4.734375 -10.394531 4.640625 -8.90625 L 1.3125 -8.890625 C 1.363281 -10.335938 1.914062 -11.472656 2.96875 -12.296875 C 4.019531 -13.128906 5.351562 -13.546875 6.96875 -13.546875 C 10.257812 -13.546875 12.019531 -12.25 12.25 -9.65625 C 12.300781 -9.019531 12.328125 -8.34375 12.328125 -7.625 L 12.328125 -3.34375 C 12.328125 -2.34375 12.410156 -1.226562 12.578125 0 Z M 6.375 -2.0625 C 7.101562 -2.0625 7.710938 -2.304688 8.203125 -2.796875 C 8.691406 -3.296875 8.9375 -3.984375 8.9375 -4.859375 L 8.9375 -5.9375 C 5.882812 -6.144531 4.359375 -5.421875 4.359375 -3.765625 C 4.359375 -2.628906 5.03125 -2.0625 6.375 -2.0625 Z M 6.375 -2.0625 "/></g></g></g><g fill="#fffdf5" fill-opacity="1"><g transform="translate(199.528191, 258.026488)"><g><path d="M 13.875 -9.84375 C 13.9375 -9.25 13.96875 -8.445312 13.96875 -7.4375 L 13.96875 0 L 10.546875 0 L 10.546875 -6.96875 C 10.546875 -7.75 10.53125 -8.363281 10.5 -8.8125 C 10.382812 -10.363281 9.539062 -11.140625 7.96875 -11.140625 C 7.070312 -11.140625 6.347656 -10.722656 5.796875 -9.890625 C 5.253906 -9.054688 4.984375 -7.769531 4.984375 -6.03125 L 4.984375 0 L 1.5625 0 L 1.5625 -13.203125 L 4.984375 -13.203125 L 4.984375 -11.0625 L 6 -12.625 C 6.863281 -13.238281 7.925781 -13.546875 9.1875 -13.546875 C 10.570312 -13.546875 11.664062 -13.222656 12.46875 -12.578125 C 13.269531 -11.929688 13.738281 -11.019531 13.875 -9.84375 Z M 13.875 -9.84375 "/></g></g></g><g fill="#fffdf5" fill-opacity="1"><g transform="translate(213.694174, 258.026488)"><g><path d="M 5.65625 -10.84375 L 5.65625 -4.734375 C 5.65625 -4.191406 5.664062 -3.804688 5.6875 -3.578125 C 5.726562 -2.929688 5.914062 -2.507812 6.25 -2.3125 C 6.582031 -2.125 7.21875 -2.066406 8.15625 -2.140625 L 8.15625 0.09375 C 7.445312 0.207031 6.695312 0.265625 5.90625 0.265625 C 4.644531 0.265625 3.742188 0.0546875 3.203125 -0.359375 C 2.671875 -0.785156 2.363281 -1.476562 2.28125 -2.4375 C 2.25 -2.832031 2.234375 -3.46875 2.234375 -4.34375 L 2.234375 -10.84375 L 0.296875 -10.84375 L 0.296875 -13.09375 L 2.234375 -13.09375 L 2.234375 -16.34375 L 5.65625 -16.34375 L 5.65625 -13.09375 L 8.390625 -13.09375 L 8.390625 -10.84375 Z M 5.65625 -10.84375 "/></g></g></g><g fill="#fffdf5" fill-opacity="1"><g transform="translate(221.409788, 258.026488)"><g><path d="M 13.546875 -6.875 C 13.546875 -6.394531 13.53125 -6.003906 13.5 -5.703125 L 4.125 -5.703125 C 4.320312 -3.273438 5.335938 -2.0625 7.171875 -2.0625 C 7.910156 -2.0625 8.523438 -2.257812 9.015625 -2.65625 C 9.503906 -3.050781 9.804688 -3.597656 9.921875 -4.296875 L 13.34375 -4.296875 C 13.019531 -2.785156 12.296875 -1.632812 11.171875 -0.84375 C 10.054688 -0.0507812 8.695312 0.34375 7.09375 0.34375 C 5.195312 0.34375 3.648438 -0.242188 2.453125 -1.421875 C 1.265625 -2.609375 0.671875 -4.316406 0.671875 -6.546875 C 0.671875 -8.597656 1.285156 -10.273438 2.515625 -11.578125 C 3.742188 -12.890625 5.363281 -13.546875 7.375 -13.546875 C 9.300781 -13.546875 10.8125 -12.90625 11.90625 -11.625 C 13 -10.351562 13.546875 -8.769531 13.546875 -6.875 Z M 7.21875 -11.140625 C 5.519531 -11.140625 4.519531 -10.070312 4.21875 -7.9375 L 10.03125 -7.9375 C 9.789062 -10.070312 8.851562 -11.140625 7.21875 -11.140625 Z M 7.21875 -11.140625 "/></g></g></g><g fill="#fffdf5" fill-opacity="1"><g transform="translate(234.508976, 258.026488)"><g><path d="M 6.28125 -13.546875 C 7.800781 -13.546875 9.015625 -13.164062 9.921875 -12.40625 C 10.835938 -11.644531 11.367188 -10.632812 11.515625 -9.375 L 8.09375 -9.375 C 7.851562 -10.65625 7.171875 -11.296875 6.046875 -11.296875 C 5.554688 -11.296875 5.171875 -11.164062 4.890625 -10.90625 C 4.617188 -10.644531 4.484375 -10.300781 4.484375 -9.875 C 4.484375 -9.375 4.707031 -8.972656 5.15625 -8.671875 C 5.601562 -8.378906 6.382812 -8.09375 7.5 -7.8125 C 8.9375 -7.445312 10.007812 -6.941406 10.71875 -6.296875 C 11.425781 -5.648438 11.78125 -4.75 11.78125 -3.59375 C 11.78125 -2.320312 11.269531 -1.347656 10.25 -0.671875 C 9.238281 0.00390625 7.941406 0.34375 6.359375 0.34375 C 4.703125 0.34375 3.359375 -0.0195312 2.328125 -0.75 C 1.304688 -1.476562 0.703125 -2.566406 0.515625 -4.015625 L 3.9375 -4.015625 C 4.070312 -3.328125 4.359375 -2.800781 4.796875 -2.4375 C 5.234375 -2.082031 5.769531 -1.90625 6.40625 -1.90625 C 6.976562 -1.90625 7.441406 -2.03125 7.796875 -2.28125 C 8.160156 -2.53125 8.34375 -2.882812 8.34375 -3.34375 C 8.34375 -3.863281 8.097656 -4.285156 7.609375 -4.609375 C 7.128906 -4.929688 6.320312 -5.234375 5.1875 -5.515625 C 3.84375 -5.835938 2.816406 -6.304688 2.109375 -6.921875 C 1.398438 -7.546875 1.046875 -8.398438 1.046875 -9.484375 C 1.046875 -10.734375 1.519531 -11.722656 2.46875 -12.453125 C 3.414062 -13.179688 4.6875 -13.546875 6.28125 -13.546875 Z M 6.28125 -13.546875 "/></g></g></g><g fill="#fffdf5" fill-opacity="1"><g transform="translate(245.599657, 258.026488)"><g/></g></g><g fill="#fffdf5" fill-opacity="1"><g transform="translate(146.456901, 283.591974)"><g><path d="M 14.390625 -18.234375 L 14.390625 0 L 10.96875 0 L 10.96875 -2.03125 L 9.96875 -0.578125 C 9.175781 0.0351562 8.035156 0.34375 6.546875 0.34375 C 4.734375 0.34375 3.300781 -0.273438 2.25 -1.515625 C 1.195312 -2.753906 0.671875 -4.367188 0.671875 -6.359375 C 0.671875 -8.640625 1.273438 -10.40625 2.484375 -11.65625 C 3.691406 -12.914062 5.195312 -13.546875 7 -13.546875 C 8.351562 -13.546875 9.382812 -13.296875 10.09375 -12.796875 L 10.96875 -11.4375 L 10.96875 -18.234375 Z M 7.546875 -2.0625 C 8.566406 -2.0625 9.390625 -2.410156 10.015625 -3.109375 C 10.648438 -3.816406 10.96875 -4.929688 10.96875 -6.453125 L 10.96875 -7.09375 C 10.96875 -8.46875 10.644531 -9.484375 10 -10.140625 C 9.351562 -10.804688 8.578125 -11.140625 7.671875 -11.140625 C 6.640625 -11.140625 5.804688 -10.742188 5.171875 -9.953125 C 4.535156 -9.171875 4.21875 -8.046875 4.21875 -6.578125 C 4.21875 -5.222656 4.519531 -4.128906 5.125 -3.296875 C 5.726562 -2.472656 6.535156 -2.0625 7.546875 -2.0625 Z M 7.546875 -2.0625 "/></g></g></g><g fill="#fffdf5" fill-opacity="1"><g transform="translate(161.218294, 283.591974)"><g><path d="M 13.546875 -6.875 C 13.546875 -6.394531 13.53125 -6.003906 13.5 -5.703125 L 4.125 -5.703125 C 4.320312 -3.273438 5.335938 -2.0625 7.171875 -2.0625 C 7.910156 -2.0625 8.523438 -2.257812 9.015625 -2.65625 C 9.503906 -3.050781 9.804688 -3.597656 9.921875 -4.296875 L 13.34375 -4.296875 C 13.019531 -2.785156 12.296875 -1.632812 11.171875 -0.84375 C 10.054688 -0.0507812 8.695312 0.34375 7.09375 0.34375 C 5.195312 0.34375 3.648438 -0.242188 2.453125 -1.421875 C 1.265625 -2.609375 0.671875 -4.316406 0.671875 -6.546875 C 0.671875 -8.597656 1.285156 -10.273438 2.515625 -11.578125 C 3.742188 -12.890625 5.363281 -13.546875 7.375 -13.546875 C 9.300781 -13.546875 10.8125 -12.90625 11.90625 -11.625 C 13 -10.351562 13.546875 -8.769531 13.546875 -6.875 Z M 7.21875 -11.140625 C 5.519531 -11.140625 4.519531 -10.070312 4.21875 -7.9375 L 10.03125 -7.9375 C 9.789062 -10.070312 8.851562 -11.140625 7.21875 -11.140625 Z M 7.21875 -11.140625 "/></g></g></g><g fill="#fffdf5" fill-opacity="1"><g transform="translate(174.317478, 283.591974)"><g/></g></g><g fill="#fffdf5" fill-opacity="1"><g transform="translate(177.889961, 283.591974)"><g><path d="M 2.484375 -11.625 C 3.691406 -12.90625 5.367188 -13.546875 7.515625 -13.546875 C 9.671875 -13.546875 11.347656 -12.90625 12.546875 -11.625 C 13.753906 -10.34375 14.359375 -8.664062 14.359375 -6.59375 C 14.359375 -4.539062 13.753906 -2.867188 12.546875 -1.578125 C 11.347656 -0.296875 9.671875 0.34375 7.515625 0.34375 C 5.367188 0.34375 3.691406 -0.296875 2.484375 -1.578125 C 1.273438 -2.867188 0.671875 -4.539062 0.671875 -6.59375 C 0.671875 -8.664062 1.273438 -10.34375 2.484375 -11.625 Z M 5.09375 -3.265625 C 5.6875 -2.460938 6.492188 -2.0625 7.515625 -2.0625 C 8.546875 -2.0625 9.351562 -2.460938 9.9375 -3.265625 C 10.519531 -4.066406 10.8125 -5.175781 10.8125 -6.59375 C 10.8125 -8.019531 10.519531 -9.132812 9.9375 -9.9375 C 9.351562 -10.738281 8.546875 -11.140625 7.515625 -11.140625 C 6.492188 -11.140625 5.6875 -10.738281 5.09375 -9.9375 C 4.507812 -9.132812 4.21875 -8.019531 4.21875 -6.59375 C 4.21875 -5.175781 4.507812 -4.066406 5.09375 -3.265625 Z M 5.09375 -3.265625 "/></g></g></g><g fill="#fffdf5" fill-opacity="1"><g transform="translate(191.683802, 283.591974)"><g><path d="M 9.40625 -13.546875 C 11.226562 -13.546875 12.660156 -12.925781 13.703125 -11.6875 C 14.753906 -10.445312 15.28125 -8.832031 15.28125 -6.84375 C 15.28125 -4.5625 14.675781 -2.789062 13.46875 -1.53125 C 12.257812 -0.28125 10.753906 0.34375 8.953125 0.34375 C 7.597656 0.34375 6.566406 0.0976562 5.859375 -0.390625 L 4.984375 -1.765625 L 4.984375 0 L 1.5625 0 L 1.5625 -18.234375 L 4.984375 -18.234375 L 4.984375 -11.1875 L 5.984375 -12.625 C 6.742188 -13.238281 7.882812 -13.546875 9.40625 -13.546875 Z M 8.28125 -2.0625 C 9.3125 -2.0625 10.144531 -2.453125 10.78125 -3.234375 C 11.414062 -4.023438 11.734375 -5.15625 11.734375 -6.625 C 11.734375 -7.976562 11.429688 -9.066406 10.828125 -9.890625 C 10.222656 -10.722656 9.414062 -11.140625 8.40625 -11.140625 C 7.382812 -11.140625 6.554688 -10.785156 5.921875 -10.078125 C 5.296875 -9.378906 4.984375 -8.269531 4.984375 -6.75 L 4.984375 -6.125 C 4.984375 -4.738281 5.304688 -3.710938 5.953125 -3.046875 C 6.597656 -2.390625 7.375 -2.0625 8.28125 -2.0625 Z M 8.28125 -2.0625 "/></g></g></g><g fill="#fffdf5" fill-opacity="1"><g transform="translate(206.395578, 283.591974)"><g><path d="M 8.28125 -13.515625 C 8.664062 -13.515625 8.988281 -13.484375 9.25 -13.421875 L 9.25 -10.671875 C 7.800781 -10.765625 6.726562 -10.453125 6.03125 -9.734375 C 5.332031 -9.015625 4.984375 -7.785156 4.984375 -6.046875 L 4.984375 0 L 1.5625 0 L 1.5625 -13.203125 L 4.984375 -13.203125 L 4.984375 -10.796875 L 6.03125 -12.625 C 6.675781 -13.21875 7.425781 -13.515625 8.28125 -13.515625 Z M 8.28125 -13.515625 "/></g></g></g><g fill="#fffdf5" fill-opacity="1"><g transform="translate(214.58256, 283.591974)"><g><path d="M 9.234375 0 L 8.984375 -1.9375 L 8.34375 -0.515625 C 7.476562 0.0546875 6.382812 0.34375 5.0625 0.34375 C 3.851562 0.34375 2.84375 0.00390625 2.03125 -0.671875 C 1.21875 -1.347656 0.8125 -2.289062 0.8125 -3.5 C 0.8125 -4.957031 1.425781 -6.078125 2.65625 -6.859375 C 3.894531 -7.648438 5.707031 -8.046875 8.09375 -8.046875 L 8.9375 -8.046875 L 8.9375 -8.3125 C 8.9375 -8.84375 8.921875 -9.253906 8.890625 -9.546875 C 8.765625 -10.609375 8.082031 -11.140625 6.84375 -11.140625 C 5.46875 -11.140625 4.734375 -10.394531 4.640625 -8.90625 L 1.3125 -8.890625 C 1.363281 -10.335938 1.914062 -11.472656 2.96875 -12.296875 C 4.019531 -13.128906 5.351562 -13.546875 6.96875 -13.546875 C 10.257812 -13.546875 12.019531 -12.25 12.25 -9.65625 C 12.300781 -9.019531 12.328125 -8.34375 12.328125 -7.625 L 12.328125 -3.34375 C 12.328125 -2.34375 12.410156 -1.226562 12.578125 0 Z M 6.375 -2.0625 C 7.101562 -2.0625 7.710938 -2.304688 8.203125 -2.796875 C 8.691406 -3.296875 8.9375 -3.984375 8.9375 -4.859375 L 8.9375 -5.9375 C 5.882812 -6.144531 4.359375 -5.421875 4.359375 -3.765625 C 4.359375 -2.628906 5.03125 -2.0625 6.375 -2.0625 Z M 6.375 -2.0625 "/></g></g></g></svg>